<?xml version="1.0" encoding="utf-8"?>
<!-- Generator: Adobe Illustrator 24.0.0, SVG Export Plug-In . SVG Version: 6.00 Build 0)  -->
<svg version="1.1" id="Layer_2" xmlns="http://www.w3.org/2000/svg" xmlns:xlink="http://www.w3.org/1999/xlink" x="0px" y="0px"
	 viewBox="0 0 500 693.4" style="enable-background:new 0 0 500 693.4;" xml:space="preserve">
<style type="text/css">
	.st0{fill:#010101;}
</style>
<path class="st0" d="M408.9,322c0,0,53.1-33.4,53.1-92.4c0,0,6.6-116.4-155.5-124.4V0h-62.7v105.2h-51.6V0h-62.8v105.2H5.1
	c-2.8,0-5.1,2.3-5.1,5.1v60.1c0,2.8,2.3,5.1,5.1,5.1h57.2c10.5,0,19.1,8.5,19.1,19.1v301.9c0,8.9-7.2,16.1-16.1,16.1H13.9
	c-1.7,0-3.1,1.3-3.4,2.9l-9.7,68c-0.4,3.1,2,5.9,5.1,5.9h123.5v103.8h62.8V589.6h51.6v103.8h62.7V590.1c0,0,192.6,0,193.5-153.2
	C499.9,436.8,505.2,351.3,408.9,322z M192.2,175.6c0,0,26.7-0.2,38.3,0c116.9,2.3,112.5,61.7,112.5,61.7
	c-1.1,75.8-113.4,70.7-113.4,70.7h-37.4V175.6z M373,439.1c0,74.3-120.3,73.6-120.3,73.6h-60.5V371h80.6
	C375.3,371,373,439.1,373,439.1z"/>
</svg>
